<?xml version="1.0" encoding="utf-8"?>
<!-- Generator: Adobe Illustrator 16.2.1, SVG Export Plug-In . SVG Version: 6.00 Build 0)  -->
<!DOCTYPE svg PUBLIC "-//W3C//DTD SVG 1.1//EN" "http://www.w3.org/Graphics/SVG/1.1/DTD/svg11.dtd">
<svg version="1.1" id="Layer_1" xmlns="http://www.w3.org/2000/svg" xmlns:xlink="http://www.w3.org/1999/xlink" x="0px" y="0px"
	 width="100px" height="100px" viewBox="0 0 100 100" enable-background="new 0 0 100 100" xml:space="preserve">
<circle fill="#FF6700" cx="49.792" cy="49.976" r="49.47"/>
<g>
	<path fill="#FFFFFF" d="M16.931,74.925c14.013-1.867,37.833-37.367,34.68-46.008c-1.752-4.321-8.757-6.188-16.698-6.188
		c-5.254,0-12.027,0.934-19.034,2.452c6.656-21.603,67.611-24.64,66.211,0.583c-12.846,0.468-26.509,23.706-26.509,38.419
		c0,1.752,0.233,3.504,0.584,4.671c1.519,3.503,4.555,5.254,8.408,5.254c3.737,0,10.626-1.401,18.917-3.153
		c-4.554,22.538-70.297,25.458-68.545,3.971H16.931z"/>
</g>
</svg>
